<?xml version="1.0" encoding="iso-8859-1"?>
<!-- Generator: Adobe Illustrator 19.0.0, SVG Export Plug-In . SVG Version: 6.00 Build 0)  -->
<svg version="1.1" id="Capa_1" xmlns="http://www.w3.org/2000/svg" xmlns:xlink="http://www.w3.org/1999/xlink" x="0px" y="0px"
	 viewBox="0 0 496.941 496.941" style="enable-background:new 0 0 496.941 496.941;" xml:space="preserve">
<g>
	<g>
		<g>
			<path d="M37.647,279.341h232.659c4.518,0,7.529-3.012,7.529-7.529v-75.294c0-4.518-3.765-7.529-7.529-7.529H37.647
				c-4.518,0-7.529,3.012-7.529,7.529v75.294C30.118,276.329,33.129,279.341,37.647,279.341z M45.176,204.047h217.6v60.235h-217.6
				V204.047z"/>
			<path d="M73.788,292.894H42.165c-4.518,0-7.529,3.012-7.529,7.529v30.871c0,4.518,3.012,7.529,7.529,7.529h30.871
				c4.518,0,7.529-3.012,7.529-7.529v-31.624C81.318,295.906,77.553,292.894,73.788,292.894z M49.694,323.765V307.2h15.812v16.565
				H49.694z"/>
			<path d="M73.788,356.141H42.165c-4.518,0-7.529,3.012-7.529,7.529v31.624c0,4.518,3.012,7.529,7.529,7.529h30.871
				c4.518,0,7.529-3.012,7.529-7.529v-31.624C81.318,359.153,77.553,356.141,73.788,356.141z M49.694,387.765V371.2h15.812v16.565
				H49.694z"/>
			<path d="M73.788,419.388H42.165c-4.518,0-7.529,3.012-7.529,7.529v31.624c0,4.518,3.012,7.529,7.529,7.529h30.871
				c4.518,0,7.529-3.012,7.529-7.529v-31.624C81.318,423.153,77.553,419.388,73.788,419.388z M49.694,451.012v-16.565h15.812v16.565
				H49.694z"/>
			<path d="M137.788,292.894h-31.624c-4.518,0-7.529,3.012-7.529,7.529v30.871c0,4.518,3.012,7.529,7.529,7.529h31.624
				c4.518,0,7.529-3.012,7.529-7.529v-31.624C145.318,295.906,141.553,292.894,137.788,292.894z M130.259,323.765h-16.565V307.2
				h16.565V323.765z"/>
			<path d="M137.788,356.141h-31.624c-4.518,0-7.529,3.012-7.529,7.529v31.624c0,4.518,3.012,7.529,7.529,7.529h31.624
				c4.518,0,7.529-3.012,7.529-7.529v-31.624C145.318,359.153,141.553,356.141,137.788,356.141z M130.259,387.765h-16.565V371.2
				h16.565V387.765z"/>
			<path d="M137.788,419.388h-31.624c-4.518,0-7.529,3.012-7.529,7.529v31.624c0,4.518,3.012,7.529,7.529,7.529h31.624
				c4.518,0,7.529-3.012,7.529-7.529v-31.624C145.318,423.153,141.553,419.388,137.788,419.388z M130.259,451.012h-16.565v-16.565
				h16.565V451.012z"/>
			<path d="M201.788,292.894h-30.871c-4.518,0-7.529,3.012-7.529,7.529v30.871c0,4.518,3.012,7.529,7.529,7.529h30.871
				c4.518,0,7.529-3.012,7.529-7.529v-31.624C209.318,295.906,205.553,292.894,201.788,292.894z M194.259,323.765h-15.812V307.2
				h15.812V323.765z"/>
			<path d="M201.788,356.141h-30.871c-4.518,0-7.529,3.012-7.529,7.529v31.624c0,4.518,3.012,7.529,7.529,7.529h30.871
				c4.518,0,7.529-3.012,7.529-7.529v-31.624C209.318,359.153,205.553,356.141,201.788,356.141z M194.259,387.765h-15.812V371.2
				h15.812V387.765z"/>
			<path d="M201.788,419.388h-30.871c-4.518,0-7.529,3.012-7.529,7.529v31.624c0,4.518,3.012,7.529,7.529,7.529h30.871
				c4.518,0,7.529-3.012,7.529-7.529v-31.624C209.318,423.153,205.553,419.388,201.788,419.388z M194.259,451.012h-15.812v-16.565
				h15.812V451.012z"/>
			<path d="M265.035,292.894h-30.871c-4.518,0-7.529,3.012-7.529,7.529v30.871c0,4.518,3.012,7.529,7.529,7.529h30.871
				c4.518,0,7.529-3.012,7.529-7.529v-31.624C272.565,295.906,269.553,292.894,265.035,292.894z M257.506,323.765h-15.812V307.2
				h15.812V323.765z"/>
			<path d="M265.035,356.141h-30.871c-4.518,0-7.529,3.012-7.529,7.529v94.871c0,4.518,3.012,7.529,7.529,7.529h30.871
				c4.518,0,7.529-3.012,7.529-7.529v-94.871C272.565,359.153,269.553,356.141,265.035,356.141z M257.506,451.012h-15.812V371.2
				h15.812V451.012z"/>
			<path d="M494.682,131.012L360.659,2.259C359.153,0.753,356.894,0,355.388,0H96.376c-4.518,0-7.529,3.012-7.529,7.529v149.082
				H7.529c-4.518,0-7.529,3.012-7.529,7.529v325.271c0,4.518,3.012,7.529,7.529,7.529s19.576,0,481.882,0
				c4.518,0,7.529-3.012,7.529-7.529c0-31.624,0,68.518,0-353.129C496.941,134.776,496.188,131.765,494.682,131.012z
				 M362.918,24.847L470.588,128H362.918V24.847z M292.894,481.882H15.059V171.671h277.835V481.882z M481.882,481.882H307.953
				V164.141c0-4.518-3.012-7.529-7.529-7.529H103.906V15.059h243.953v121.224c0,4.518,3.012,7.529,7.529,7.529h126.494
				C481.882,402.071,481.882,478.118,481.882,481.882z"/>
			<path d="M295.906,47.435H144.565c-4.518,0-7.529,3.012-7.529,7.529s3.012,7.529,7.529,7.529h151.341
				c4.518,0,7.529-3.012,7.529-7.529C303.435,50.447,300.424,47.435,295.906,47.435z"/>
			<path d="M295.906,91.859H144.565c-4.518,0-7.529,3.012-7.529,7.529s3.012,7.529,7.529,7.529h151.341
				c4.518,0,7.529-3.012,7.529-7.529S300.424,91.859,295.906,91.859z"/>
			<path d="M396.047,317.741c-39.906,0-72.282,32.376-72.282,73.035c0,39.906,32.376,73.035,72.282,73.035
				s72.282-32.376,72.282-73.035C468.329,350.118,435.953,317.741,396.047,317.741z M396.047,448
				c-31.624,0-57.224-25.6-57.224-57.977s25.6-57.976,57.224-57.976s57.224,25.6,57.224,57.976S427.671,448,396.047,448z"/>
			<path d="M418.635,391.529c-3.765-3.765-9.788-6.776-18.071-8.282v-20.329c5.271,0.753,10.541,3.012,15.059,6.023l6.776-9.788
				c-6.776-4.518-14.306-7.529-21.835-8.282V345.6h-6.776v5.271c-6.776,0-12.8,2.259-16.565,6.776
				c-4.518,3.765-6.776,9.035-6.776,15.059c0,6.023,1.506,10.541,5.271,14.306c3.765,3.012,9.788,6.024,17.318,7.529v21.082
				c-6.024-0.753-12.8-3.765-18.071-9.035l-7.529,9.035c7.529,6.776,16.565,10.541,26.353,12.047v7.529h6.776v-7.529
				c7.529,0,12.8-2.259,17.318-6.776c4.518-3.765,6.776-9.035,6.776-15.059C424.659,399.812,422.4,394.541,418.635,391.529z
				 M393.788,380.988L393.788,380.988c-3.765-1.506-6.777-2.259-8.282-3.765s-2.259-3.012-2.259-6.023
				c0-2.259,0.753-4.518,3.012-6.024c1.506-1.506,4.518-2.259,7.529-3.012V380.988z M408.094,412.612
				c-2.259,1.506-4.518,3.012-8.282,3.012v-19.576c4.518,1.506,7.529,3.012,9.035,3.765c1.506,1.506,2.259,3.765,2.259,6.024
				C411.106,408.847,410.353,411.106,408.094,412.612z"/>
			<path d="M346.353,257.506c-0.753,0,0,0,0,0.753l-30.871,65.506c-1.506,3.012-0.753,6.776,2.259,9.035
				c2.259,2.259,6.024,2.259,9.035,0.753l59.482-40.659l0.753-0.753c0,0,0.753,0,0.753-0.753l82.824-97.129
				c9.788-11.294,8.282-27.859-3.012-37.647c-4.518-3.765-10.541-6.023-17.318-6.023c-7.529,0-15.059,3.012-20.329,9.035
				l-82.824,97.129C347.106,256.753,347.106,257.506,346.353,257.506z M441.976,169.412c3.765-4.518,11.294-5.271,15.812-1.506
				c5.271,4.518,5.271,11.294,1.506,16.565l-78.306,91.106l-17.318-15.059L441.976,169.412z M369.694,285.365l-28.612,19.576
				l15.059-31.624L369.694,285.365z"/>
		</g>
	</g>
</g>
<g>
</g>
<g>
</g>
<g>
</g>
<g>
</g>
<g>
</g>
<g>
</g>
<g>
</g>
<g>
</g>
<g>
</g>
<g>
</g>
<g>
</g>
<g>
</g>
<g>
</g>
<g>
</g>
<g>
</g>
</svg>
